# xmcd
#
# Track frame offsets:
# 150
# 20038
# 47836
# 75638
# 99573
# 146121
# 169372
# 207822
#
# Disc length: 3202 seconds
#
#
# Revision: 2
# Processed by: cddbd v1.5.1PL2 Copyright (c) Steve Scherf et al.
# Submitted via: FreeRIP 2.92 
#
DISCID=6e0c8008
DTITLE=Loreena McKennitt - The book of secrets
DYEAR=2006
DGENRE=folk
TTITLE0=Prologue
TTITLE1=The mummers` dance
TTITLE2=Skelling
TTITLE3=Marco Polo
TTITLE4=The highwayman
TTITLE5=La serenissima
TTITLE6=Night ride across the caucasus
TTITLE7=Dante`s praver
EXTD=
EXTT0=
EXTT1=
EXTT2=
EXTT3=
EXTT4=
EXTT5=
EXTT6=
EXTT7=
PLAYORDER=
